<svg width="81" height="35" viewBox="0 0 81 35" fill="none" xmlns="http://www.w3.org/2000/svg">
<path d="M41 10.5C41 9.67157 41.6716 9 42.5 9V9V9C43.3284 9 44 9.67157 44 10.5V16V21.5C44 22.3284 43.3284 23 42.5 23V23C41.6716 23 41 22.3284 41 21.5V10.5Z" fill="#B6FF00"/>
<path d="M69.5 20C70.3284 20 71 20.6716 71 21.5V21.5V21.5C71 22.3284 70.3284 23 69.5 23L60 23L50.5 23C49.6716 23 49 22.3284 49 21.5V21.5C49 20.6716 49.6716 20 50.5 20L69.5 20Z" fill="#B6FF00"/>
<path d="M54.5 21.5C54.5 25.7858 51.6522 28.5 49 28.5C46.3478 28.5 43.5 25.7858 43.5 21.5C43.5 17.2142 46.3478 14.5 49 14.5C51.6522 14.5 54.5 17.2142 54.5 21.5Z" stroke="#B6FF00" stroke-width="5"/>
<path d="M76.5 21.5C76.5 25.7858 73.6522 28.5 71 28.5C68.3478 28.5 65.5 25.7858 65.5 21.5C65.5 17.2142 68.3478 14.5 71 14.5C73.6522 14.5 76.5 17.2142 76.5 21.5Z" stroke="#B6FF00" stroke-width="5"/>
<path d="M4.576 30.256C3.91467 30.256 3.392 30.0747 3.008 29.712C2.64533 29.328 2.464 28.784 2.464 28.08V9.616C2.464 8.912 2.64533 8.37867 3.008 8.016C3.392 7.632 3.936 7.44 4.64 7.44H15.808C16.3627 7.44 16.7787 7.57867 17.056 7.856C17.3333 8.13333 17.472 8.528 17.472 9.04C17.472 9.57333 17.3333 9.98933 17.056 10.288C16.7787 10.5653 16.3627 10.704 15.808 10.704H6.56V17.072H15.136C15.6693 17.072 16.0747 17.2107 16.352 17.488C16.6507 17.7653 16.8 18.16 16.8 18.672C16.8 19.2053 16.6507 19.6213 16.352 19.92C16.0747 20.1973 15.6693 20.336 15.136 20.336H6.56V28.08C6.56 29.5307 5.89867 30.256 4.576 30.256ZM23.314 30.224C22.674 30.224 22.1833 30.032 21.842 29.648C21.5007 29.264 21.33 28.7307 21.33 28.048V16.304C21.33 15.6 21.5007 15.0667 21.842 14.704C22.1833 14.32 22.674 14.128 23.314 14.128C23.954 14.128 24.4447 14.32 24.786 14.704C25.1487 15.0667 25.33 15.6 25.33 16.304V28.048C25.33 28.7307 25.1593 29.264 24.818 29.648C24.4767 30.032 23.9753 30.224 23.314 30.224ZM23.314 11.152C22.5673 11.152 21.9807 10.9707 21.554 10.608C21.1487 10.224 20.946 9.70133 20.946 9.04C20.946 8.35733 21.1487 7.83467 21.554 7.472C21.9807 7.10933 22.5673 6.928 23.314 6.928C24.082 6.928 24.6687 7.10933 25.074 7.472C25.4793 7.83467 25.682 8.35733 25.682 9.04C25.682 9.70133 25.4793 10.224 25.074 10.608C24.6687 10.9707 24.082 11.152 23.314 11.152ZM36.6543 30.32C35.2676 30.32 34.1049 30.0853 33.1663 29.616C32.2489 29.1467 31.5663 28.464 31.1183 27.568C30.6703 26.6507 30.4463 25.52 30.4463 24.176V17.36H28.7823C28.2703 17.36 27.8756 17.232 27.5983 16.976C27.3209 16.6987 27.1822 16.3253 27.1822 15.856C27.1822 15.3653 27.3209 14.992 27.5983 14.736C27.8756 14.48 28.2703 14.352 28.7823 14.352H30.4463V11.44C30.4463 10.7787 30.6169 10.2773 30.9583 9.936C31.3209 9.59467 31.8223 9.424 32.4623 9.424C33.1023 9.424 33.5929 9.59467 33.9343 9.936C34.2756 10.2773 34.4463 10.7787 34.4463 11.44V14.352H37.8383C38.3503 14.352 38.7449 14.48 39.0223 14.736C39.2996 14.992 39.4383 15.3653 39.4383 15.856C39.4383 16.3253 39.2996 16.6987 39.0223 16.976C38.7449 17.232 38.3503 17.36 37.8383 17.36H34.4463V23.952C34.4463 24.976 34.6703 25.744 35.1183 26.256C35.5663 26.768 36.2916 27.024 37.2943 27.024C37.6569 27.024 37.9769 26.992 38.2543 26.928C38.5316 26.864 38.7769 26.8213 38.9903 26.8C39.2463 26.7787 39.4596 26.864 39.6303 27.056C39.8009 27.2267 39.8863 27.5893 39.8863 28.144C39.8863 28.5707 39.8116 28.9547 39.6623 29.296C39.5343 29.616 39.2889 29.84 38.9263 29.968C38.6489 30.0533 38.2863 30.128 37.8383 30.192C37.3903 30.2773 36.9956 30.32 36.6543 30.32Z" fill="white"/>
</svg>
